<?xml version="1.0" encoding="utf-8"?>
<?xml-stylesheet type="text/xsl" href="rss1.xsl"?>
<rss version="2.0" xmlns:atom="http://www.w3.org/2005/Atom" xmlns:content="http://purl.org/rss/1.0/modules/content/" xmlns:dc="http://purl.org/dc/elements/1.1/" xmlns:media="http://search.yahoo.com/mrss/">
<channel>
 <title>Getty</title>
 <link>http://www.gettyimg.com/</link>
 <atom:link href="http://www.gettyimg.com/" rel="self" type="application/rss+xml" />

 
                <item>
                <title><![CDATA[【HD Live Performances】UPSCALE - Michael Jackson 1995 VMA Performance 1080p60]]></title>
                <link><![CDATA[https://sharemania.us/threads/michael-jackson-1995-vma-performance-1080p60.222858/]]></link>
                <description><![CDATA[<article>
<blockquote class="messageText SelectQuoteContainer ugc baseHtml">
Deinterlaced with QTGMC Slower Preset.<br>
<div class="ToggleTriggerAnchor bbCodeSpoilerContainer">
<button type="button" class="button bbCodeSpoilerButton ToggleTrigger Tooltip JsOnly" data-target="> .SpoilerTarget"><span>Spoiler: <span class="SpoilerTitle">Thumbnails</span></span></button>
<div class="SpoilerTarget bbCodeSpoilerText"><img src="https://i.imgur.com/flkQbXH.jpg" class="bbCodeImage LbImage" alt="[​IMG]" data-url="https://i.imgur.com/flkQbXH.jpg" style=""></div>
</div>
<div class="ToggleTriggerAnchor bbCodeSpoilerContainer">
<button type="button" class="button bbCodeSpoilerButton ToggleTrigger Tooltip JsOnly" data-target="> .SpoilerTarget"><span>Spoiler: <span class="SpoilerTitle">Mediainfo</span></span></button>
<div class="SpoilerTarget bbCodeSpoilerText">
<div class="bbCodeBlock bbCodeCode">
<div class="type">Code:</div>
<pre>General
Complete name                  : Michael Jackson 1995 VMA Performance HD 60 FPS.mp4
Format                         : MPEG-4
Format profile                 : Base Media
Codec ID                       : isom (isom/iso2/avc1/mp41)
File size                      : 881 MiB
Duration                       : 14 min 39 s
Overall bit rate               : 8 400 kb/s
Writing application            : Lavf60.5.100

Video
ID                             : 1
Format                         : AVC
Format/Info                    : Advanced Video Codec
Format profile                 : High@L5
Format settings                : CABAC / 8 Ref Frames
Format settings, CABAC         : Yes
Format settings, Reference fra : 8 frames
Codec ID                       : avc1
Codec ID/Info                  : Advanced Video Coding
Duration                       : 14 min 39 s
Bit rate                       : 8 067 kb/s
Width                          : 1 440 pixels
Height                         : 1 080 pixels
Display aspect ratio           : 4:3
Frame rate mode                : Constant
Frame rate                     : 59.940 (60000/1001) FPS
Color space                    : YUV
Chroma subsampling             : 4:2:0
Bit depth                      : 8 bits
Scan type                      : Progressive
Bits/(Pixel*Frame)             : 0.087
Stream size                    : 846 MiB (96%)
Writing library                : x264 core 164 r3095M baee400
Encoding settings              : cabac=1 / ref=8 / deblock=1:0:0 / analyse=0x3:0x133 / me=umh / subme=9 / psy=1 / psy_rd=1.00:0.00 / mixed_ref=1 / me_range=16 / chroma_me=1 / trellis=2 / 8x8dct=1 / cqm=0 / deadzone=21,11 / fast_pskip=1 / chroma_qp_offset=-2 / threads=6 / lookahead_threads=1 / sliced_threads=0 / nr=0 / decimate=1 / interlaced=0 / bluray_compat=0 / constrained_intra=0 / bframes=3 / b_pyramid=2 / b_adapt=2 / b_bias=0 / direct=3 / weightb=1 / open_gop=0 / weightp=2 / keyint=250 / keyint_min=25 / scenecut=40 / intra_refresh=0 / rc_lookahead=60 / rc=crf / mbtree=1 / crf=18.0 / qcomp=0.60 / qpmin=0 / qpmax=69 / qpstep=4 / ip_ratio=1.40 / aq=1:1.00
Color range                    : Limited
Color primaries                : BT.601 NTSC
Transfer characteristics       : BT.601
Matrix coefficients            : BT.601
Codec configuration box        : avcC

Audio
ID                             : 2
Format                         : AAC LC
Format/Info                    : Advanced Audio Codec Low Complexity
Codec ID                       : mp4a-40-2
Duration                       : 14 min 39 s
Source duration                : 14 min 39 s
Source_Duration_LastFrame      : -12 ms
Bit rate mode                  : Constant
Bit rate                       : 320 kb/s
Channel(s)                     : 2 channels
Channel layout                 : L R
Sampling rate                  : 48.0 kHz
Frame rate                     : 46.875 FPS (1024 SPF)
Compression mode               : Lossy
Stream size                    : 33.6 MiB (4%)
Source stream size             : 33.6 MiB (4%)
Default                        : Yes
Alternate group                : 1

</pre>
</div></div>
</div>
<div class="ToggleTriggerAnchor bbCodeSpoilerContainer">
<button type="button" class="button bbCodeSpoilerButton ToggleTrigger Tooltip JsOnly" data-target="> .SpoilerTarget"><span>Spoiler: <span class="SpoilerTitle">Download</span></span></button>
<div class="SpoilerTarget bbCodeSpoilerText">
<div class="bbCodeBlock bbCodeVfcHH HiddenContent">
<div class="attribution type">Hidden Content:</div>
<blockquote>You must reply before you can see the hidden data contained here.</blockquote>
</div></div>
</div>
<div class="messageTextEndMarker">&nbsp;</div>
</blockquote>
</article>]]></description>
                <author><![CDATA[glomatico]]></author>
                </item>

                
                <item>
                <title><![CDATA[【PRORES HD】Max Cooper - Veil of Time 3D (Binaural Audio) [Master ProRes 1080p | PCM 16-bit 48 kHz]]]></title>
                <link><![CDATA[https://sharemania.us/threads/max-cooper-veil-of-time-3d-binaural-audio-master-prores-1080p-pcm-16-bit-48-khz.222857/]]></link>
                <description><![CDATA[<article>
<blockquote class="messageText SelectQuoteContainer ugc baseHtml">
<b><img src="https://images2.imgbox.com/c2/fa/18ZGcL7K_o.jpg" class="bbCodeImage LbImage" alt="[​IMG]" data-url="https://images2.imgbox.com/c2/fa/18ZGcL7K_o.jpg" style=""> <br>
<br>
Genre: <span style="color: #0059b3">Electronic</span><br>
Style: <span style="color: #0059b3">Ambient</span><br>
Year: <span style="color: #0059b3">2020</span><br>
Video Format: <span style="color: #0059b3">ProRes 422 HQ</span><br>
Audio Format: <span style="color: #0059b3">PCM 16-bit 48 kHz</span></b><br>
<br>
"<b>Veil of Time 3D</b>" is a track by London-based electronica and techno producer Max Cooper. It's the fourth track from his album 3D Reworks 001, released in 2020.<br>
<br>
Max Cooper rises to the challenge to correct the recent interest in ‘8D audio’, which is a name that has been given to a single audio track sent through a binaural panner. There aren't really 8 dimensions, it's a 3D experience, but it is a special audio experience worthy of our attention.<br>
<br>
The binaural recording technique was invented in the 50's - sound is recorded from inside a fake head, in order to capture the subtle signals of how sound interacts with the head and ears, and is fractionally delayed between the two ear drums depending on its position. These subtle signals are interpreted by our brains to give information about the sound environment around us, which we experience as a 3D immersive sound world.<br>
<br>
Max Cooper said about the project: <i>"This project with Kevin McGloughlin started with the idea of playing with time. I was interested in the idea of time as something like another physical dimension, moving forward as a growing structure, and the slitscan technique made famous by Stanley Kubrick in his 1968 film, 2001 A Space Odyssey. This technique captures a thin line of image at any one moment, stretching out time across each single frame on screen. I thought it could be something like what our world might look like if we weren't stuck inside it, pinned to our timeline.<br>
<br>
Kevin McGloughlin took this rough idea and created something entirely unexpected, an abstracted love story of sorts, full of tiny cuts and suggestive imagery, taking the whole project far beyond our initial discussions in quality, as he always does! So when it came to making a 3D headphone surround sound version of the project I thought it was a great opportunity to revisit the audio form and score it more closely to Kevin's video work.<br>
<br>
I added a lot of real binaural recordings of me walking in the forest and making various clicks and crunches, along with Rob Clouth's amazing "Dust" VST which creates a binaural particle field around a simulated listener (you), and some basic binaural panning too. I tried to make this new spatial format follow Kevin's visual story and sync to his micro cuts of momentary visuals.<br>
<br>
The 3D binaural surround sound content only works if you listen with headphones though, as it needs a clean left and right signal reaching your left and right ears."</i><br>
<br>
<div class="ToggleTriggerAnchor bbCodeSpoilerContainer">
<button type="button" class="button bbCodeSpoilerButton ToggleTrigger Tooltip JsOnly" data-target="> .SpoilerTarget"><span>Spoiler: <span class="SpoilerTitle">Media Info</span></span></button>
<div class="SpoilerTarget bbCodeSpoilerText">
<div class="bbCodeBlock bbCodeCode">
<div class="type">Code:</div>
<pre>General
Complete name                  : Max Cooper - Veil of Time 3D (Binaural Audio).mov
Format                         : MPEG-4
Format profile                 : QuickTime
Codec ID                       : qt   2005.03 (qt  )
File size                      : 3.37 GiB
Duration                       : 2 min 45 s
Overall bit rate mode          : Variable
Overall bit rate               : 175 Mb/s
Frame rate                     : 25.000 FPS
Encoded date                   : 2020-04-08 17:21:00 UTC
Tagged date                    : 2020-04-06 17:22:45 UTC
Writing library                : Apple QuickTime
TIM                            : 00:00:00:00
TSC                            : 25
TSZ                            : 1

Video
ID                             : 1
Format                         : ProRes
Format version                 : Version 0
Format profile                 : 422 HQ
Codec ID                       : apch
Duration                       : 2 min 45 s
Bit rate mode                  : Variable
Bit rate                       : 174 Mb/s
Width                          : 1 920 pixels
Height                         : 1 080 pixels
Display aspect ratio           : 16:9
Frame rate mode                : Constant
Frame rate                     : 25.000 FPS
Color space                    : YUV
Chroma subsampling             : 4:2:2
Scan type                      : Progressive
Bits/(Pixel*Frame)             : 3.349
Stream size                    : 3.34 GiB (99%)
Writing library                : adb0
Language                       : English
Encoded date                   : 2020-04-08 17:21:00 UTC
Tagged date                    : 2020-04-08 17:21:00 UTC
Color primaries                : BT.709
Transfer characteristics       : BT.709
Matrix coefficients            : BT.709

Audio
ID                             : 2
Format                         : PCM
Format settings                : Little / Signed
Codec ID                       : sowt
Duration                       : 2 min 45 s
Bit rate mode                  : Constant
Bit rate                       : 1 536 kb/s
Channel(s)                     : 2 channels
Channel layout                 : L R
Sampling rate                  : 48.0 kHz
Bit depth                      : 16 bits
Stream size                    : 30.2 MiB (1%)
Language                       : English
Encoded date                   : 2020-04-08 17:21:00 UTC
Tagged date                    : 2020-04-08 17:21:00 UTC

Other
ID                             : 3
Type                           : Time code
Format                         : QuickTime TC
Duration                       : 2 min 45 s
Frame rate                     : 25.000 FPS
Time code of first frame       : 00:00:00:00
Time code of last frame        : 00:02:45:03
Time code, stripped            : Yes
Language                       : English
Encoded date                   : 2020-04-08 17:21:00 UTC
Tagged date                    : 2020-04-08 17:21:00 UTC
</pre>
</div></div>
</div><br>
<div class="bbCodeBlock bbCodeVfcHH HiddenContent">
<div class="attribution type">Hidden Content:</div>
<blockquote>You must reply before you can see the hidden data contained here.</blockquote>
</div>
<div class="messageTextEndMarker">&nbsp;</div>
</blockquote>
</article>]]></description>
                <author><![CDATA[ADHDerby]]></author>
                </item>

                </channel></rss>